<svg width="437" height="401" viewBox="0 0 437 401" fill="none" xmlns="http://www.w3.org/2000/svg">
<ellipse cx="218" cy="107" rx="106" ry="107" fill="white"/>
<ellipse cx="218" cy="107" rx="106" ry="107" fill="white"/>
<ellipse cx="218" cy="107" rx="106" ry="107" fill="#366E88"/>
<rect y="145" width="437" height="256" rx="20" fill="#366E88"/>
<ellipse cx="218.5" cy="102" rx="91.5" ry="86" fill="white"/>
<ellipse cx="218.5" cy="102" rx="91.5" ry="86" fill="white"/>
<ellipse cx="218.5" cy="102" rx="91.5" ry="86" fill="white"/>
<path d="M170 122.362H267M186.167 87.1812V55.0155C186.167 53.3501 187.614 52 189.4 52H247.6C249.386 52 250.833 53.3501 250.833 55.0155V87.1812M267 139.45V107.285C267 96.1821 257.349 87.1812 245.444 87.1812H191.556C179.651 87.1812 170 96.1821 170 107.285V139.45C170 141.116 171.448 142.466 173.233 142.466H263.767C265.553 142.466 267 141.116 267 139.45Z" stroke="#DEB841" stroke-width="10.5192"/>
</svg>
