<svg width="437" height="404" viewBox="0 0 437 404" fill="none" xmlns="http://www.w3.org/2000/svg">
<ellipse cx="218" cy="107" rx="106" ry="107" fill="white"/>
<ellipse cx="218" cy="107" rx="106" ry="107" fill="white"/>
<ellipse cx="218" cy="107" rx="106" ry="107" fill="#366E88"/>
<rect y="148" width="437" height="256" rx="20" fill="#366E88"/>
<ellipse cx="218.5" cy="102" rx="91.5" ry="86" fill="white"/>
<ellipse cx="218.5" cy="102" rx="91.5" ry="86" fill="white"/>
<ellipse cx="218.5" cy="102" rx="91.5" ry="86" fill="white"/>
<path d="M169 122.362H266M185.167 87.1812V55.0155C185.167 53.3501 186.614 52 188.4 52H246.6C248.386 52 249.833 53.3501 249.833 55.0155V87.1812M266 139.45V107.285C266 96.1821 256.349 87.1812 244.444 87.1812H190.556C178.651 87.1812 169 96.1821 169 107.285V139.45C169 141.116 170.448 142.466 172.233 142.466H262.767C264.553 142.466 266 141.116 266 139.45Z" stroke="#DEB841" stroke-width="10.5192"/>
</svg>
