<svg width="212" height="203" viewBox="0 0 212 203" fill="none" xmlns="http://www.w3.org/2000/svg">
<ellipse cx="106" cy="101.5" rx="106" ry="101.5" fill="white"/>
<ellipse cx="106" cy="101.5" rx="106" ry="101.5" fill="white"/>
<ellipse cx="106" cy="101.5" rx="106" ry="101.5" fill="#DEB841"/>
<ellipse cx="106.5" cy="102" rx="91.5" ry="86" fill="white"/>
<ellipse cx="106.5" cy="102" rx="91.5" ry="86" fill="white"/>
<ellipse cx="106.5" cy="102" rx="91.5" ry="86" fill="white"/>
<path d="M58 127.362H155M74.1667 92.1812V60.0155C74.1667 58.3501 75.6143 57 77.4 57H135.6C137.386 57 138.833 58.3501 138.833 60.0155V92.1812M155 144.45V112.285C155 101.182 145.349 92.1812 133.444 92.1812H79.5556C67.6507 92.1812 58 101.182 58 112.285V144.45C58 146.116 59.4476 147.466 61.2333 147.466H151.767C153.553 147.466 155 146.116 155 144.45Z" stroke="#DEB841" stroke-width="10.5192"/>
</svg>
