<svg width="212" height="203" viewBox="0 0 212 203" fill="none" xmlns="http://www.w3.org/2000/svg">
<ellipse cx="106" cy="101.5" rx="106" ry="101.5" fill="white"/>
<ellipse cx="106" cy="101.5" rx="106" ry="101.5" fill="white"/>
<ellipse cx="106" cy="101.5" rx="106" ry="101.5" fill="#DEB841"/>
<ellipse cx="106.5" cy="102" rx="91.5" ry="86" fill="white"/>
<ellipse cx="106.5" cy="102" rx="91.5" ry="86" fill="white"/>
<ellipse cx="106.5" cy="102" rx="91.5" ry="86" fill="white"/>
<path d="M49 61V142.879H165V61H49ZM102.36 109.957C103.701 110.837 105.328 111.313 107 111.313C108.672 111.313 110.299 110.837 111.64 109.957L117.311 106.204L157.267 132.644V136.056H56.7333V132.644L96.6888 106.204L102.36 109.957ZM107 104.498L56.7333 71.2349V67.8233H157.267V71.2349L107 104.498ZM56.7333 79.764L90.2445 101.94L56.7333 124.115V79.764ZM157.267 124.115L123.755 101.94L157.267 79.764V124.115Z" fill="#DEB841"/>
</svg>
