<svg width="437" height="401" viewBox="0 0 437 401" fill="none" xmlns="http://www.w3.org/2000/svg">
<ellipse cx="218" cy="107" rx="106" ry="107" fill="white"/>
<ellipse cx="218" cy="107" rx="106" ry="107" fill="white"/>
<ellipse cx="218" cy="107" rx="106" ry="107" fill="#366E88"/>
<rect y="145" width="437" height="256" rx="20" fill="#366E88"/>
<ellipse cx="218.5" cy="102" rx="91.5" ry="86" fill="white"/>
<ellipse cx="218.5" cy="102" rx="91.5" ry="86" fill="white"/>
<ellipse cx="218.5" cy="102" rx="91.5" ry="86" fill="white"/>
<path d="M242.756 111.988L225.748 115.756C214.261 109.163 207.164 101.588 203.034 89.7816L206.214 70.2764L200.204 52H184.713C180.056 52 176.389 56.4005 177.085 61.6659C178.821 74.8106 183.94 98.6437 198.905 115.756C214.619 133.727 237.253 141.525 249.71 144.625C254.52 145.822 258.787 141.531 258.787 135.901V118.974L242.756 111.988Z" stroke="#DEB841" stroke-width="9.56098" stroke-linecap="round" stroke-linejoin="round"/>
</svg>
